<?xml version="1.0" standalone="no"?>
<!DOCTYPE svg PUBLIC "-//W3C//DTD SVG 20010904//EN"
 "http://www.w3.org/TR/2001/REC-SVG-20010904/DTD/svg10.dtd">
<svg version="1.0" xmlns="http://www.w3.org/2000/svg"
 width="532.000000pt" height="88.000000pt" viewBox="0 0 532.000000 88.000000"
 preserveAspectRatio="xMidYMid meet">
<metadata>
Created by potrace 1.16, written by Peter Selinger 2001-2019
</metadata>
<g transform="translate(0.000000,88.000000) scale(0.100000,-0.100000)"
fill="#000000" stroke="none">
<path d="M911 687 c-6 -8 -32 -20 -57 -27 -50 -14 -64 -32 -46 -61 19 -30 16
-332 -3 -370 -9 -16 -13 -34 -10 -39 3 -6 49 -10 101 -10 104 0 120 9 90 52
-11 16 -16 45 -16 101 0 85 11 117 39 117 34 0 44 -28 50 -143 l6 -112 78 -3
c63 -2 78 0 83 13 4 8 0 23 -7 32 -10 11 -16 56 -19 140 -5 122 -6 125 -33
149 -44 38 -126 28 -166 -20 -8 -9 -17 -16 -22 -16 -5 0 -10 46 -11 103 -3 95
-4 102 -24 105 -11 2 -26 -3 -33 -11z"/>
<path d="M1325 688 c-67 -37 -94 -97 -59 -132 21 -21 47 -20 94 4 38 19 70 62
70 93 0 38 -62 59 -105 35z"/>
<path d="M2691 686 c-6 -7 -31 -19 -56 -26 -58 -16 -73 -34 -51 -58 23 -26 24
-328 1 -373 -9 -16 -13 -34 -10 -39 3 -6 49 -10 101 -10 104 0 120 9 90 52
-13 19 -16 56 -16 229 0 114 -3 214 -6 223 -8 20 -38 21 -53 2z"/>
<path d="M495 629 c-85 -25 -145 -116 -145 -220 1 -169 131 -262 305 -218 91
23 155 118 110 163 -32 32 -67 17 -95 -40 -34 -69 -48 -84 -79 -84 -60 0 -96
81 -89 199 7 114 45 171 105 156 14 -3 47 -29 73 -57 77 -83 101 -50 50 70
l-19 42 -93 -1 c-51 0 -106 -5 -123 -10z"/>
<path d="M2456 611 c-16 -17 -49 -39 -72 -51 -46 -21 -54 -39 -29 -60 12 -10
15 -37 15 -122 0 -155 22 -198 102 -198 39 0 78 24 78 47 0 9 -8 25 -17 36
-14 15 -19 42 -21 127 -4 107 -3 108 20 112 32 4 36 36 4 47 -19 8 -25 18 -28
47 -4 48 -17 52 -52 15z"/>
<path d="M1370 536 c-8 -7 -39 -21 -67 -31 -54 -17 -65 -33 -38 -55 22 -18 21
-187 -1 -218 -30 -43 -14 -52 90 -52 52 0 98 4 101 10 3 5 -1 23 -10 39 -11
22 -15 62 -15 156 0 153 -16 193 -60 151z"/>
<path d="M1590 535 c-7 -9 -32 -20 -56 -26 -56 -14 -73 -33 -50 -57 23 -27 24
-341 0 -377 -9 -13 -13 -29 -9 -35 3 -6 46 -10 101 -10 104 0 120 9 90 52 -10
14 -16 43 -16 75 l0 54 30 -16 c67 -35 145 -5 184 70 26 50 27 155 3 201 -44
84 -132 110 -187 56 l-28 -29 -6 29 c-6 31 -35 38 -56 13z"/>
<path d="M2020 528 c-76 -39 -112 -122 -91 -212 13 -54 39 -87 92 -114 57 -30
158 -27 212 7 101 62 101 250 0 312 -54 34 -155 37 -213 7z m124 -50 c24 -34
22 -198 -2 -229 -12 -14 -25 -20 -35 -16 -24 9 -40 83 -35 157 8 102 37 138
72 88z"/>
<path d="M2899 527 c-58 -31 -89 -84 -89 -154 0 -88 31 -140 105 -174 69 -32
179 -21 230 24 32 27 38 74 12 91 -16 9 -24 5 -52 -27 -36 -42 -78 -59 -113
-46 -17 6 -22 15 -20 31 2 19 11 24 56 30 62 9 105 29 126 60 21 29 20 97 0
127 -43 60 -175 80 -255 38z"/>
<path d="M3283 531 c-49 -23 -63 -45 -63 -100 0 -58 36 -94 130 -129 58 -22
75 -32 75 -47 0 -16 -8 -21 -37 -23 -32 -3 -44 3 -82 38 -46 43 -71 48 -89 18
-16 -24 5 -64 44 -84 43 -22 134 -29 188 -14 66 18 101 57 101 115 0 61 -27
87 -118 115 -76 23 -96 38 -86 64 12 31 62 20 101 -24 39 -42 71 -51 93 -24
20 23 1 64 -39 88 -50 29 -163 33 -218 7z"/>
<path d="M3844 532 c-72 -34 -111 -108 -100 -188 8 -62 30 -100 75 -130 105
-69 300 -21 289 72 -5 44 -32 41 -76 -6 -41 -45 -90 -57 -118 -28 -21 21 -7
48 25 48 85 0 171 60 171 120 0 41 -25 83 -63 105 -46 27 -152 31 -203 7z"/>
<path d="M4143 534 c-4 -12 4 -26 29 -46 20 -16 50 -51 68 -78 l31 -49 -33
-49 c-18 -27 -47 -60 -65 -72 -18 -12 -33 -31 -33 -42 0 -17 7 -19 68 -16 l67
3 -3 35 c-3 33 14 90 27 90 15 0 35 -48 36 -85 l0 -40 108 -3 c92 -2 108 0
114 14 4 11 -7 28 -34 52 -22 21 -52 56 -68 80 l-29 44 19 35 c11 19 41 55 68
78 28 24 46 48 43 54 -4 6 -36 11 -73 11 l-66 0 6 -36 c4 -24 1 -47 -9 -66
l-16 -30 -15 22 c-9 13 -17 41 -17 64 l-1 41 -108 3 c-93 2 -108 0 -114 -14z"/>
<path d="M4684 532 c-72 -34 -111 -108 -100 -188 8 -62 30 -100 75 -130 105
-69 300 -21 289 72 -5 44 -32 41 -76 -6 -41 -45 -90 -57 -118 -28 -21 21 -7
48 25 48 85 0 171 60 171 120 0 41 -25 83 -63 105 -46 27 -152 31 -203 7z"/>
</g>
</svg>
